{
	"asset":{
		"generator":"Khronos glTF Blender I/O v4.5.49",
		"version":"2.0"
	},
	"scene":0,
	"scenes":[
		{
			"name":"Scene",
			"nodes":[
				0,
				1,
				2,
				3,
				4,
				5
			]
		}
	],
	"nodes":[
		{
			"mesh":0,
			"name":"wall",
			"scale":[
				19.458091735839844,
				7.887485504150391,
				7.887485504150391
			],
			"translation":[
				0.10627034306526184,
				0.030451014637947083,
				-0.17606599628925323
			]
		},
		{
			"mesh":1,
			"name":"frame",
			"rotation":[
				0.70710688829422,
				0,
				0,
				0.7071066498756409
			],
			"scale":[
				0.1670018881559372,
				0.15695714950561523,
				0.15228013694286346
			],
			"translation":[
				14.981319427490234,
				5.685044765472412,
				7.611420154571533
			]
		},
		{
			"mesh":2,
			"name":"tv",
			"scale":[
				2.8329639434814453,
				1.5294586420059204,
				0.14720021188259125
			],
			"translation":[
				4.2541093826293945,
				6.846840858459473,
				7.402376174926758
			]
		},
		{
			"mesh":3,
			"name":"kiosk",
			"rotation":[
				0,
				-1,
				0,
				4.371138828673793e-08
			],
			"scale":[
				4.268770694732666,
				4.268770694732666,
				4.268770694732666
			],
			"translation":[
				-3.7223711013793945,
				-0.011496201157569885,
				6.11781644821167
			]
		},
		{
			"mesh":4,
			"name":"table",
			"rotation":[
				0,
				0.7071068286895752,
				0,
				0.7071067094802856
			],
			"scale":[
				0.31470969319343567,
				0.3147096633911133,
				0.31470969319343567
			],
			"translation":[
				-11.725314140319824,
				0.028008751571178436,
				4.949674606323242
			]
		},
		{
			"mesh":5,
			"name":"kds",
			"scale":[
				1,
				0.056782469153404236,
				1
			],
			"translation":[
				-11.697482109069824,
				3.3754940032958984,
				4.980679988861084
			]
		}
	],
	"materials":[
		{
			"doubleSided":true,
			"name":"Material.003",
			"pbrMetallicRoughness":{
				"baseColorFactor":[
					0.046885035932064056,
					0.3101891875267029,
					0.36630505323410034,
					1
				],
				"metallicFactor":0
			}
		},
		{
			"doubleSided":true,
			"name":"Material",
			"pbrMetallicRoughness":{
				"baseColorFactor":[
					0.15516088902950287,
					0,
					0.0017455158522352576,
					1
				],
				"metallicFactor":0,
				"roughnessFactor":0.5
			}
		},
		{
			"doubleSided":true,
			"name":"Material.001",
			"pbrMetallicRoughness":{
				"baseColorFactor":[
					0,
					0,
					0,
					1
				],
				"metallicFactor":0.14012739062309265,
				"roughnessFactor":0.8057324886322021
			}
		},
		{
			"doubleSided":true,
			"name":"kiosk",
			"pbrMetallicRoughness":{
				"baseColorFactor":[
					0.10779877007007599,
					0.10779877007007599,
					0.10779877007007599,
					1
				],
				"metallicFactor":0
			}
		},
		{
			"name":"795548",
			"pbrMetallicRoughness":{
				"baseColorFactor":[
					0.4745100140571594,
					0.33333298563957214,
					0.282353013753891,
					1
				],
				"metallicFactor":0,
				"roughnessFactor":0.9039215445518494
			}
		},
		{
			"doubleSided":true,
			"name":"Material.002",
			"pbrMetallicRoughness":{
				"baseColorFactor":[
					0.002448353683575988,
					0.002448353683575988,
					0.002448353683575988,
					1
				],
				"metallicFactor":0,
				"roughnessFactor":0.5
			}
		}
	],
	"meshes":[
		{
			"name":"Plane",
			"primitives":[
				{
					"attributes":{
						"POSITION":0,
						"NORMAL":1,
						"TEXCOORD_0":2
					},
					"indices":3,
					"material":0
				}
			]
		},
		{
			"name":"Mesh",
			"primitives":[
				{
					"attributes":{
						"POSITION":4,
						"NORMAL":5,
						"TEXCOORD_0":6,
						"TEXCOORD_1":7
					},
					"indices":8,
					"material":1
				}
			]
		},
		{
			"name":"Cube.002",
			"primitives":[
				{
					"attributes":{
						"POSITION":9,
						"NORMAL":10,
						"TEXCOORD_0":11
					},
					"indices":12,
					"material":2
				}
			]
		},
		{
			"name":"kiosk",
			"primitives":[
				{
					"attributes":{
						"POSITION":13,
						"NORMAL":14,
						"TEXCOORD_0":15
					},
					"indices":16,
					"material":3
				}
			]
		},
		{
			"name":"Table_Large_Rectangular_01_Circle.004-Mesh",
			"primitives":[
				{
					"attributes":{
						"POSITION":17,
						"NORMAL":18,
						"TEXCOORD_0":19
					},
					"indices":20,
					"material":4
				}
			]
		},
		{
			"name":"Cube.004",
			"primitives":[
				{
					"attributes":{
						"POSITION":21,
						"NORMAL":22,
						"TEXCOORD_0":23
					},
					"indices":24,
					"material":5
				}
			]
		}
	],
	"accessors":[
		{
			"bufferView":0,
			"componentType":5126,
			"count":8,
			"max":[
				1,
				1.2504558563232422,
				1
			],
			"min":[
				-1,
				0,
				-1
			],
			"type":"VEC3"
		},
		{
			"bufferView":1,
			"componentType":5126,
			"count":8,
			"type":"VEC3"
		},
		{
			"bufferView":2,
			"componentType":5126,
			"count":8,
			"type":"VEC2"
		},
		{
			"bufferView":3,
			"componentType":5123,
			"count":12,
			"type":"SCALAR"
		},
		{
			"bufferView":4,
			"componentType":5126,
			"count":267,
			"max":[
				9.566927909851074,
				0.5678337216377258,
				15.748031616210938
			],
			"min":[
				-9.566929817199707,
				-0.5678322911262512,
				-15.748031616210938
			],
			"type":"VEC3"
		},
		{
			"bufferView":5,
			"componentType":5126,
			"count":267,
			"type":"VEC3"
		},
		{
			"bufferView":6,
			"componentType":5126,
			"count":267,
			"type":"VEC2"
		},
		{
			"bufferView":7,
			"componentType":5126,
			"count":267,
			"type":"VEC2"
		},
		{
			"bufferView":8,
			"componentType":5123,
			"count":606,
			"type":"SCALAR"
		},
		{
			"bufferView":9,
			"componentType":5126,
			"count":56,
			"max":[
				1,
				1,
				1
			],
			"min":[
				-1,
				-1,
				-1
			],
			"type":"VEC3"
		},
		{
			"bufferView":10,
			"componentType":5126,
			"count":56,
			"type":"VEC3"
		},
		{
			"bufferView":11,
			"componentType":5126,
			"count":56,
			"type":"VEC2"
		},
		{
			"bufferView":12,
			"componentType":5123,
			"count":108,
			"type":"SCALAR"
		},
		{
			"bufferView":13,
			"componentType":5126,
			"count":1392,
			"max":[
				0.18249064683914185,
				1.201307773590088,
				0.2065592259168625
			],
			"min":[
				-0.18249064683914185,
				-0.010000031441450119,
				-0.10185132920742035
			],
			"type":"VEC3"
		},
		{
			"bufferView":14,
			"componentType":5126,
			"count":1392,
			"type":"VEC3"
		},
		{
			"bufferView":15,
			"componentType":5126,
			"count":1392,
			"type":"VEC2"
		},
		{
			"bufferView":16,
			"componentType":5123,
			"count":6264,
			"type":"SCALAR"
		},
		{
			"bufferView":17,
			"componentType":5126,
			"count":216,
			"max":[
				5.871726989746094,
				7.543402194976807,
				9.89596176147461
			],
			"min":[
				-5.871726989746094,
				0,
				-9.903390884399414
			],
			"type":"VEC3"
		},
		{
			"bufferView":18,
			"componentType":5126,
			"count":216,
			"type":"VEC3"
		},
		{
			"bufferView":19,
			"componentType":5126,
			"count":216,
			"type":"VEC2"
		},
		{
			"bufferView":20,
			"componentType":5123,
			"count":384,
			"type":"SCALAR"
		},
		{
			"bufferView":21,
			"componentType":5126,
			"count":1557,
			"max":[
				0.9999999403953552,
				13.36510944366455,
				0.7353794574737549
			],
			"min":[
				-0.9999998807907104,
				-17.639440536499023,
				-0.7353797554969788
			],
			"type":"VEC3"
		},
		{
			"bufferView":22,
			"componentType":5126,
			"count":1557,
			"type":"VEC3"
		},
		{
			"bufferView":23,
			"componentType":5126,
			"count":1557,
			"type":"VEC2"
		},
		{
			"bufferView":24,
			"componentType":5123,
			"count":3378,
			"type":"SCALAR"
		}
	],
	"bufferViews":[
		{
			"buffer":0,
			"byteLength":96,
			"byteOffset":0,
			"target":34962
		},
		{
			"buffer":0,
			"byteLength":96,
			"byteOffset":96,
			"target":34962
		},
		{
			"buffer":0,
			"byteLength":64,
			"byteOffset":192,
			"target":34962
		},
		{
			"buffer":0,
			"byteLength":24,
			"byteOffset":256,
			"target":34963
		},
		{
			"buffer":0,
			"byteLength":3204,
			"byteOffset":280,
			"target":34962
		},
		{
			"buffer":0,
			"byteLength":3204,
			"byteOffset":3484,
			"target":34962
		},
		{
			"buffer":0,
			"byteLength":2136,
			"byteOffset":6688,
			"target":34962
		},
		{
			"buffer":0,
			"byteLength":2136,
			"byteOffset":8824,
			"target":34962
		},
		{
			"buffer":0,
			"byteLength":1212,
			"byteOffset":10960,
			"target":34963
		},
		{
			"buffer":0,
			"byteLength":672,
			"byteOffset":12172,
			"target":34962
		},
		{
			"buffer":0,
			"byteLength":672,
			"byteOffset":12844,
			"target":34962
		},
		{
			"buffer":0,
			"byteLength":448,
			"byteOffset":13516,
			"target":34962
		},
		{
			"buffer":0,
			"byteLength":216,
			"byteOffset":13964,
			"target":34963
		},
		{
			"buffer":0,
			"byteLength":16704,
			"byteOffset":14180,
			"target":34962
		},
		{
			"buffer":0,
			"byteLength":16704,
			"byteOffset":30884,
			"target":34962
		},
		{
			"buffer":0,
			"byteLength":11136,
			"byteOffset":47588,
			"target":34962
		},
		{
			"buffer":0,
			"byteLength":12528,
			"byteOffset":58724,
			"target":34963
		},
		{
			"buffer":0,
			"byteLength":2592,
			"byteOffset":71252,
			"target":34962
		},
		{
			"buffer":0,
			"byteLength":2592,
			"byteOffset":73844,
			"target":34962
		},
		{
			"buffer":0,
			"byteLength":1728,
			"byteOffset":76436,
			"target":34962
		},
		{
			"buffer":0,
			"byteLength":768,
			"byteOffset":78164,
			"target":34963
		},
		{
			"buffer":0,
			"byteLength":18684,
			"byteOffset":78932,
			"target":34962
		},
		{
			"buffer":0,
			"byteLength":18684,
			"byteOffset":97616,
			"target":34962
		},
		{
			"buffer":0,
			"byteLength":12456,
			"byteOffset":116300,
			"target":34962
		},
		{
			"buffer":0,
			"byteLength":6756,
			"byteOffset":128756,
			"target":34963
		}
	],
	"buffers":[
		{
			"byteLength":135512,
			"uri":"confiancelabs_model.bin"
		}
	]
}
