{
	"asset":{
		"generator":"Khronos glTF Blender I/O v4.5.49",
		"version":"2.0"
	},
	"extensionsUsed":[
		"KHR_materials_specular"
	],
	"scene":0,
	"scenes":[
		{
			"name":"Scene",
			"nodes":[
				0,
				1
			]
		}
	],
	"nodes":[
		{
			"mesh":0,
			"name":"Table_Large_Rectangular_01_Circle.004"
		},
		{
			"mesh":1,
			"name":"mobile",
			"rotation":[
				0.7071068286895752,
				0,
				0,
				0.7071068286895752
			]
		}
	],
	"materials":[
		{
			"name":"795548",
			"pbrMetallicRoughness":{
				"baseColorFactor":[
					0.4745100140571594,
					0.33333298563957214,
					0.282353013753891,
					1
				],
				"metallicFactor":0,
				"roughnessFactor":0.9039215445518494
			}
		},
		{
			"doubleSided":true,
			"extensions":{
				"KHR_materials_specular":{
					"specularFactor":0
				}
			},
			"name":"Side_Dark_Lines",
			"pbrMetallicRoughness":{
				"baseColorFactor":[
					0.800000011920929,
					0.800000011920929,
					0.800000011920929,
					1
				],
				"metallicFactor":0
			}
		},
		{
			"doubleSided":true,
			"extensions":{
				"KHR_materials_specular":{
					"specularFactor":0
				}
			},
			"name":"Side_Dark_Lines.003",
			"pbrMetallicRoughness":{
				"baseColorFactor":[
					0.800000011920929,
					0.800000011920929,
					0.800000011920929,
					1
				],
				"metallicFactor":0
			}
		},
		{
			"doubleSided":true,
			"extensions":{
				"KHR_materials_specular":{
					"specularFactor":0
				}
			},
			"name":"Matte_Metallic_Blue",
			"pbrMetallicRoughness":{
				"baseColorFactor":[
					0.8003232479095459,
					0.10830018669366837,
					0.03212445601820946,
					1
				],
				"metallicFactor":0
			}
		},
		{
			"doubleSided":true,
			"extensions":{
				"KHR_materials_specular":{
					"specularFactor":0
				}
			},
			"name":"LIDAR_Senser",
			"pbrMetallicRoughness":{
				"baseColorFactor":[
					0.800000011920929,
					0.800000011920929,
					0.800000011920929,
					1
				],
				"metallicFactor":0
			}
		},
		{
			"doubleSided":true,
			"extensions":{
				"KHR_materials_specular":{
					"specularFactor":0
				}
			},
			"name":"Torch",
			"pbrMetallicRoughness":{
				"baseColorFactor":[
					0.800000011920929,
					0.800000011920929,
					0.800000011920929,
					1
				],
				"metallicFactor":0
			}
		},
		{
			"doubleSided":true,
			"extensions":{
				"KHR_materials_specular":{
					"specularFactor":0
				}
			},
			"name":"Matte_Metallic_Blue_logo.001",
			"pbrMetallicRoughness":{
				"baseColorFactor":[
					0.800000011920929,
					0.800000011920929,
					0.800000011920929,
					1
				],
				"metallicFactor":0
			}
		},
		{
			"doubleSided":true,
			"extensions":{
				"KHR_materials_specular":{
					"specularFactor":0
				}
			},
			"name":"Display_Blue",
			"pbrMetallicRoughness":{
				"baseColorFactor":[
					0,
					0,
					0,
					1
				],
				"metallicFactor":0
			}
		},
		{
			"doubleSided":true,
			"extensions":{
				"KHR_materials_specular":{
					"specularFactor":0
				}
			},
			"name":"Mic",
			"pbrMetallicRoughness":{
				"baseColorFactor":[
					0.800000011920929,
					0.800000011920929,
					0.800000011920929,
					1
				],
				"metallicFactor":0
			}
		},
		{
			"doubleSided":true,
			"extensions":{
				"KHR_materials_specular":{
					"specularFactor":0
				}
			},
			"name":"Side_Strips_Blue",
			"pbrMetallicRoughness":{
				"baseColorFactor":[
					0.800000011920929,
					0.800000011920929,
					0.800000011920929,
					1
				],
				"metallicFactor":0
			}
		},
		{
			"doubleSided":true,
			"extensions":{
				"KHR_materials_specular":{
					"specularFactor":0
				}
			},
			"name":"Warnex_Black",
			"pbrMetallicRoughness":{
				"baseColorFactor":[
					0.800000011920929,
					0.800000011920929,
					0.800000011920929,
					1
				],
				"metallicFactor":0
			}
		},
		{
			"doubleSided":true,
			"extensions":{
				"KHR_materials_specular":{
					"specularFactor":0
				}
			},
			"name":"Display_Borders",
			"pbrMetallicRoughness":{
				"baseColorFactor":[
					0.800000011920929,
					0.800000011920929,
					0.800000011920929,
					1
				],
				"metallicFactor":0
			}
		},
		{
			"doubleSided":true,
			"extensions":{
				"KHR_materials_specular":{
					"specularFactor":0
				}
			},
			"name":"Metal_Mesh_Grill",
			"pbrMetallicRoughness":{
				"baseColorFactor":[
					0.800000011920929,
					0.800000011920929,
					0.800000011920929,
					1
				],
				"metallicFactor":0
			}
		}
	],
	"meshes":[
		{
			"name":"Table_Large_Rectangular_01_Circle.004-Mesh",
			"primitives":[
				{
					"attributes":{
						"POSITION":0,
						"NORMAL":1,
						"TEXCOORD_0":2
					},
					"indices":3,
					"material":0
				}
			]
		},
		{
			"name":"Torx_Flat_Top.010",
			"primitives":[
				{
					"attributes":{
						"POSITION":4,
						"NORMAL":5,
						"TEXCOORD_0":6
					},
					"indices":7,
					"material":1
				},
				{
					"attributes":{
						"POSITION":8,
						"NORMAL":9,
						"TEXCOORD_0":10
					},
					"indices":11,
					"material":2
				},
				{
					"attributes":{
						"POSITION":12,
						"NORMAL":13,
						"TEXCOORD_0":14
					},
					"indices":15,
					"material":3
				},
				{
					"attributes":{
						"POSITION":16,
						"NORMAL":17,
						"TEXCOORD_0":18
					},
					"indices":19,
					"material":4
				},
				{
					"attributes":{
						"POSITION":20,
						"NORMAL":21,
						"TEXCOORD_0":22
					},
					"indices":23,
					"material":5
				},
				{
					"attributes":{
						"POSITION":24,
						"NORMAL":25,
						"TEXCOORD_0":26
					},
					"indices":27,
					"material":6
				},
				{
					"attributes":{
						"POSITION":28,
						"NORMAL":29,
						"TEXCOORD_0":30
					},
					"indices":31,
					"material":7
				},
				{
					"attributes":{
						"POSITION":32,
						"NORMAL":33,
						"TEXCOORD_0":34
					},
					"indices":35,
					"material":8
				},
				{
					"attributes":{
						"POSITION":36,
						"NORMAL":37,
						"TEXCOORD_0":38
					},
					"indices":39,
					"material":9
				},
				{
					"attributes":{
						"POSITION":40,
						"NORMAL":41,
						"TEXCOORD_0":42
					},
					"indices":43,
					"material":10
				},
				{
					"attributes":{
						"POSITION":44,
						"NORMAL":45,
						"TEXCOORD_0":46
					},
					"indices":47,
					"material":11
				},
				{
					"attributes":{
						"POSITION":48,
						"NORMAL":49,
						"TEXCOORD_0":50
					},
					"indices":51
				},
				{
					"attributes":{
						"POSITION":52,
						"NORMAL":53,
						"TEXCOORD_0":54
					},
					"indices":55,
					"material":12
				}
			]
		}
	],
	"accessors":[
		{
			"bufferView":0,
			"componentType":5126,
			"count":216,
			"max":[
				5.871726989746094,
				7.543402194976807,
				9.89596176147461
			],
			"min":[
				-5.871726989746094,
				0,
				-9.903390884399414
			],
			"type":"VEC3"
		},
		{
			"bufferView":1,
			"componentType":5126,
			"count":216,
			"type":"VEC3"
		},
		{
			"bufferView":2,
			"componentType":5126,
			"count":216,
			"type":"VEC2"
		},
		{
			"bufferView":3,
			"componentType":5123,
			"count":384,
			"type":"SCALAR"
		},
		{
			"bufferView":4,
			"componentType":5126,
			"count":11709,
			"max":[
				-2.115380048751831,
				0.1123720034956932,
				-0.5926139950752258
			],
			"min":[
				-2.5453009605407715,
				0.07257500290870667,
				-0.6195999979972839
			],
			"type":"VEC3"
		},
		{
			"bufferView":5,
			"componentType":5126,
			"count":11709,
			"type":"VEC3"
		},
		{
			"bufferView":6,
			"componentType":5126,
			"count":11709,
			"type":"VEC2"
		},
		{
			"bufferView":7,
			"componentType":5123,
			"count":57888,
			"type":"SCALAR"
		},
		{
			"bufferView":8,
			"componentType":5126,
			"count":168,
			"max":[
				3.0708930492401123,
				-0.1597461700439453,
				-0.714293360710144
			],
			"min":[
				2.9076459407806396,
				-0.32300108671188354,
				-0.7251706719398499
			],
			"type":"VEC3"
		},
		{
			"bufferView":9,
			"componentType":5126,
			"count":168,
			"type":"VEC3"
		},
		{
			"bufferView":10,
			"componentType":5126,
			"count":168,
			"type":"VEC2"
		},
		{
			"bufferView":11,
			"componentType":5123,
			"count":324,
			"type":"SCALAR"
		},
		{
			"bufferView":12,
			"componentType":5126,
			"count":10025,
			"max":[
				1.9491033554077148,
				1.569528579711914,
				-7.572992324829102
			],
			"min":[
				-2.1097826957702637,
				-0.42520618438720703,
				-7.888417720794678
			],
			"type":"VEC3"
		},
		{
			"bufferView":13,
			"componentType":5126,
			"count":10025,
			"type":"VEC3"
		},
		{
			"bufferView":14,
			"componentType":5126,
			"count":10025,
			"type":"VEC2"
		},
		{
			"bufferView":15,
			"componentType":5123,
			"count":35481,
			"type":"SCALAR"
		},
		{
			"bufferView":16,
			"componentType":5126,
			"count":64,
			"max":[
				-1.0801687240600586,
				1.2862319946289062,
				-7.573105812072754
			],
			"min":[
				-1.2697620391845703,
				1.09663987159729,
				-7.573245525360107
			],
			"type":"VEC3"
		},
		{
			"bufferView":17,
			"componentType":5126,
			"count":64,
			"type":"VEC3"
		},
		{
			"bufferView":18,
			"componentType":5126,
			"count":64,
			"type":"VEC2"
		},
		{
			"bufferView":19,
			"componentType":5123,
			"count":186,
			"type":"SCALAR"
		},
		{
			"bufferView":20,
			"componentType":5126,
			"count":65,
			"max":[
				-1.6471123695373535,
				1.2947237491607666,
				-7.57352352142334
			],
			"min":[
				-1.836902141571045,
				1.104933500289917,
				-7.573663234710693
			],
			"type":"VEC3"
		},
		{
			"bufferView":21,
			"componentType":5126,
			"count":65,
			"type":"VEC3"
		},
		{
			"bufferView":22,
			"componentType":5126,
			"count":65,
			"type":"VEC2"
		},
		{
			"bufferView":23,
			"componentType":5123,
			"count":189,
			"type":"SCALAR"
		},
		{
			"bufferView":24,
			"componentType":5126,
			"count":44,
			"max":[
				1.869023323059082,
				1.4536349773406982,
				-7.636754512786865
			],
			"min":[
				-0.7910122871398926,
				-0.33063626289367676,
				-7.638701438903809
			],
			"type":"VEC3"
		},
		{
			"bufferView":25,
			"componentType":5126,
			"count":44,
			"type":"VEC3"
		},
		{
			"bufferView":26,
			"componentType":5126,
			"count":44,
			"type":"VEC2"
		},
		{
			"bufferView":27,
			"componentType":5123,
			"count":126,
			"type":"SCALAR"
		},
		{
			"bufferView":28,
			"componentType":5126,
			"count":163,
			"max":[
				1.885814905166626,
				1.5283067226409912,
				-7.865061283111572
			],
			"min":[
				-2.046313762664795,
				-0.3869743347167969,
				-7.888393402099609
			],
			"type":"VEC3"
		},
		{
			"bufferView":29,
			"componentType":5126,
			"count":163,
			"type":"VEC3"
		},
		{
			"bufferView":30,
			"componentType":5126,
			"count":163,
			"type":"VEC2"
		},
		{
			"bufferView":31,
			"componentType":5123,
			"count":381,
			"type":"SCALAR"
		},
		{
			"bufferView":32,
			"componentType":5126,
			"count":66,
			"max":[
				-1.4497652053833008,
				1.2105560302734375,
				-7.585941791534424
			],
			"min":[
				-1.48388671875,
				1.176435947418213,
				-7.585967063903809
			],
			"type":"VEC3"
		},
		{
			"bufferView":33,
			"componentType":5126,
			"count":66,
			"type":"VEC3"
		},
		{
			"bufferView":34,
			"componentType":5126,
			"count":66,
			"type":"VEC2"
		},
		{
			"bufferView":35,
			"componentType":5123,
			"count":192,
			"type":"SCALAR"
		},
		{
			"bufferView":36,
			"componentType":5126,
			"count":13972,
			"max":[
				3.206976890563965,
				1.5665314197540283,
				-0.7004764676094055
			],
			"min":[
				-2.045670509338379,
				-0.4251894950866699,
				-7.88822078704834
			],
			"type":"VEC3"
		},
		{
			"bufferView":37,
			"componentType":5126,
			"count":13972,
			"type":"VEC3"
		},
		{
			"bufferView":38,
			"componentType":5126,
			"count":13972,
			"type":"VEC2"
		},
		{
			"bufferView":39,
			"componentType":5123,
			"count":62568,
			"type":"SCALAR"
		},
		{
			"bufferView":40,
			"componentType":5126,
			"count":44,
			"max":[
				1.8615822792053223,
				0.6559028625488281,
				-7.716968536376953
			],
			"min":[
				1.8296072483062744,
				0.4288444519042969,
				-7.804384708404541
			],
			"type":"VEC3"
		},
		{
			"bufferView":41,
			"componentType":5126,
			"count":44,
			"type":"VEC3"
		},
		{
			"bufferView":42,
			"componentType":5126,
			"count":44,
			"type":"VEC2"
		},
		{
			"bufferView":43,
			"componentType":5123,
			"count":120,
			"type":"SCALAR"
		},
		{
			"bufferView":44,
			"componentType":5126,
			"count":144,
			"max":[
				1.9108922481536865,
				1.5283067226409912,
				-7.885490894317627
			],
			"min":[
				-2.0713911056518555,
				-0.3869743347167969,
				-7.888411998748779
			],
			"type":"VEC3"
		},
		{
			"bufferView":45,
			"componentType":5126,
			"count":144,
			"type":"VEC3"
		},
		{
			"bufferView":46,
			"componentType":5126,
			"count":144,
			"type":"VEC2"
		},
		{
			"bufferView":47,
			"componentType":5123,
			"count":360,
			"type":"SCALAR"
		},
		{
			"bufferView":48,
			"componentType":5126,
			"count":51,
			"max":[
				-1.8167266845703125,
				0.9149703979492188,
				-7.888233661651611
			],
			"min":[
				-1.9941153526306152,
				0.3142881393432617,
				-7.888359546661377
			],
			"type":"VEC3"
		},
		{
			"bufferView":49,
			"componentType":5126,
			"count":51,
			"type":"VEC3"
		},
		{
			"bufferView":50,
			"componentType":5126,
			"count":51,
			"type":"VEC2"
		},
		{
			"bufferView":51,
			"componentType":5123,
			"count":147,
			"type":"SCALAR"
		},
		{
			"bufferView":52,
			"componentType":5126,
			"count":406,
			"max":[
				1.9327930212020874,
				1.2105560302734375,
				-7.581786155700684
			],
			"min":[
				-1.4838895797729492,
				-0.05691194534301758,
				-7.781754493713379
			],
			"type":"VEC3"
		},
		{
			"bufferView":53,
			"componentType":5126,
			"count":406,
			"type":"VEC3"
		},
		{
			"bufferView":54,
			"componentType":5126,
			"count":406,
			"type":"VEC2"
		},
		{
			"bufferView":55,
			"componentType":5123,
			"count":1152,
			"type":"SCALAR"
		}
	],
	"bufferViews":[
		{
			"buffer":0,
			"byteLength":2592,
			"byteOffset":0,
			"target":34962
		},
		{
			"buffer":0,
			"byteLength":2592,
			"byteOffset":2592,
			"target":34962
		},
		{
			"buffer":0,
			"byteLength":1728,
			"byteOffset":5184,
			"target":34962
		},
		{
			"buffer":0,
			"byteLength":768,
			"byteOffset":6912,
			"target":34963
		},
		{
			"buffer":0,
			"byteLength":140508,
			"byteOffset":7680,
			"target":34962
		},
		{
			"buffer":0,
			"byteLength":140508,
			"byteOffset":148188,
			"target":34962
		},
		{
			"buffer":0,
			"byteLength":93672,
			"byteOffset":288696,
			"target":34962
		},
		{
			"buffer":0,
			"byteLength":115776,
			"byteOffset":382368,
			"target":34963
		},
		{
			"buffer":0,
			"byteLength":2016,
			"byteOffset":498144,
			"target":34962
		},
		{
			"buffer":0,
			"byteLength":2016,
			"byteOffset":500160,
			"target":34962
		},
		{
			"buffer":0,
			"byteLength":1344,
			"byteOffset":502176,
			"target":34962
		},
		{
			"buffer":0,
			"byteLength":648,
			"byteOffset":503520,
			"target":34963
		},
		{
			"buffer":0,
			"byteLength":120300,
			"byteOffset":504168,
			"target":34962
		},
		{
			"buffer":0,
			"byteLength":120300,
			"byteOffset":624468,
			"target":34962
		},
		{
			"buffer":0,
			"byteLength":80200,
			"byteOffset":744768,
			"target":34962
		},
		{
			"buffer":0,
			"byteLength":70962,
			"byteOffset":824968,
			"target":34963
		},
		{
			"buffer":0,
			"byteLength":768,
			"byteOffset":895932,
			"target":34962
		},
		{
			"buffer":0,
			"byteLength":768,
			"byteOffset":896700,
			"target":34962
		},
		{
			"buffer":0,
			"byteLength":512,
			"byteOffset":897468,
			"target":34962
		},
		{
			"buffer":0,
			"byteLength":372,
			"byteOffset":897980,
			"target":34963
		},
		{
			"buffer":0,
			"byteLength":780,
			"byteOffset":898352,
			"target":34962
		},
		{
			"buffer":0,
			"byteLength":780,
			"byteOffset":899132,
			"target":34962
		},
		{
			"buffer":0,
			"byteLength":520,
			"byteOffset":899912,
			"target":34962
		},
		{
			"buffer":0,
			"byteLength":378,
			"byteOffset":900432,
			"target":34963
		},
		{
			"buffer":0,
			"byteLength":528,
			"byteOffset":900812,
			"target":34962
		},
		{
			"buffer":0,
			"byteLength":528,
			"byteOffset":901340,
			"target":34962
		},
		{
			"buffer":0,
			"byteLength":352,
			"byteOffset":901868,
			"target":34962
		},
		{
			"buffer":0,
			"byteLength":252,
			"byteOffset":902220,
			"target":34963
		},
		{
			"buffer":0,
			"byteLength":1956,
			"byteOffset":902472,
			"target":34962
		},
		{
			"buffer":0,
			"byteLength":1956,
			"byteOffset":904428,
			"target":34962
		},
		{
			"buffer":0,
			"byteLength":1304,
			"byteOffset":906384,
			"target":34962
		},
		{
			"buffer":0,
			"byteLength":762,
			"byteOffset":907688,
			"target":34963
		},
		{
			"buffer":0,
			"byteLength":792,
			"byteOffset":908452,
			"target":34962
		},
		{
			"buffer":0,
			"byteLength":792,
			"byteOffset":909244,
			"target":34962
		},
		{
			"buffer":0,
			"byteLength":528,
			"byteOffset":910036,
			"target":34962
		},
		{
			"buffer":0,
			"byteLength":384,
			"byteOffset":910564,
			"target":34963
		},
		{
			"buffer":0,
			"byteLength":167664,
			"byteOffset":910948,
			"target":34962
		},
		{
			"buffer":0,
			"byteLength":167664,
			"byteOffset":1078612,
			"target":34962
		},
		{
			"buffer":0,
			"byteLength":111776,
			"byteOffset":1246276,
			"target":34962
		},
		{
			"buffer":0,
			"byteLength":125136,
			"byteOffset":1358052,
			"target":34963
		},
		{
			"buffer":0,
			"byteLength":528,
			"byteOffset":1483188,
			"target":34962
		},
		{
			"buffer":0,
			"byteLength":528,
			"byteOffset":1483716,
			"target":34962
		},
		{
			"buffer":0,
			"byteLength":352,
			"byteOffset":1484244,
			"target":34962
		},
		{
			"buffer":0,
			"byteLength":240,
			"byteOffset":1484596,
			"target":34963
		},
		{
			"buffer":0,
			"byteLength":1728,
			"byteOffset":1484836,
			"target":34962
		},
		{
			"buffer":0,
			"byteLength":1728,
			"byteOffset":1486564,
			"target":34962
		},
		{
			"buffer":0,
			"byteLength":1152,
			"byteOffset":1488292,
			"target":34962
		},
		{
			"buffer":0,
			"byteLength":720,
			"byteOffset":1489444,
			"target":34963
		},
		{
			"buffer":0,
			"byteLength":612,
			"byteOffset":1490164,
			"target":34962
		},
		{
			"buffer":0,
			"byteLength":612,
			"byteOffset":1490776,
			"target":34962
		},
		{
			"buffer":0,
			"byteLength":408,
			"byteOffset":1491388,
			"target":34962
		},
		{
			"buffer":0,
			"byteLength":294,
			"byteOffset":1491796,
			"target":34963
		},
		{
			"buffer":0,
			"byteLength":4872,
			"byteOffset":1492092,
			"target":34962
		},
		{
			"buffer":0,
			"byteLength":4872,
			"byteOffset":1496964,
			"target":34962
		},
		{
			"buffer":0,
			"byteLength":3248,
			"byteOffset":1501836,
			"target":34962
		},
		{
			"buffer":0,
			"byteLength":2304,
			"byteOffset":1505084,
			"target":34963
		}
	],
	"buffers":[
		{
			"byteLength":1507388,
			"uri":"ispg_phone.bin"
		}
	]
}
